<svg xmlns="http://www.w3.org/2000/svg" xmlns:xlink="http://www.w3.org/1999/xlink" viewBox="0 0 1366 737.5"><defs><style>.cls-1{fill:url(#linear-gradient);}</style><linearGradient id="linear-gradient" x1="1022.67" y1="175.11" x2="104.27" y2="681.91" gradientUnits="userSpaceOnUse"><stop offset="0" stop-color="#2aa9ff"/><stop offset="1" stop-color="#3fffec"/></linearGradient></defs><title>bg</title><g id="Layer_2" data-name="Layer 2"><g id="Layer_1-2" data-name="Layer 1"><path class="cls-1" d="M220.5,728.17c5.9,3.75,11.88,7.85,18.44,8.59,9.33,1,18.15-4.85,26.59-10,74.9-46,166.08-46,241,0,8.06,5,16.43,10.54,25.36,9.92,7-.5,13.53-4.83,19.88-8.77C629.2,679.82,724.07,680.63,801,730c5.42,3.47,11,7.26,17,7.48,6.82.25,13.16-4,19.26-7.9,77.39-49.24,172.67-49.57,250.27-.87,6.2,3.89,12.64,8.18,19.54,7.91,6.07-.24,11.66-4,17.1-7.44a242.91,242.91,0,0,1,66.21-29.31,220.56,220.56,0,0,1,59.09-7.81c40.91.22,80.46,12,116.47,33V305s-33-154-333-157S683,0,683,0H0V715.35C69.56,682.21,148.78,682.51,220.5,728.17Z"/></g></g></svg>