<svg xmlns="http://www.w3.org/2000/svg" xmlns:xlink="http://www.w3.org/1999/xlink" viewBox="0 0 1366.5 737.5"><defs><style>.cls-1{fill:url(#linear-gradient);}.cls-2{fill:url(#linear-gradient-2);}.cls-3{fill:url(#linear-gradient-3);}</style><linearGradient id="linear-gradient" x1="1023.17" y1="175.11" x2="104.77" y2="681.91" gradientUnits="userSpaceOnUse"><stop offset="0" stop-color="#2aa9ff"/><stop offset="1" stop-color="#3fffec"/></linearGradient><linearGradient id="linear-gradient-2" x1="100.77" y1="437.44" x2="-40.5" y2="515.4" gradientUnits="userSpaceOnUse"><stop offset="0" stop-color="#b6a9ff"/><stop offset="1" stop-color="#3fffec" stop-opacity="0"/></linearGradient><linearGradient id="linear-gradient-3" x1="1405.68" y1="278.08" x2="1242.42" y2="368.17" xlink:href="#linear-gradient-2"/></defs><title>together</title><g id="Layer_2" data-name="Layer 2"><g id="Layer_1-2" data-name="Layer 1"><path class="cls-1" d="M221,728.17c5.9,3.75,11.88,7.85,18.44,8.59,9.33,1,18.15-4.85,26.59-10,74.9-46,166.08-46,241,0,8.06,5,16.43,10.54,25.36,9.92,7-.5,13.53-4.83,19.88-8.77,77.46-48.07,172.33-47.26,249.28,2.12,5.42,3.47,11,7.26,17,7.48,6.82.25,13.16-4,19.26-7.9,77.39-49.24,172.67-49.57,250.27-.87,6.2,3.89,12.64,8.18,19.54,7.91,6.07-.24,11.66-4,17.1-7.44a242.91,242.91,0,0,1,66.21-29.31,220.56,220.56,0,0,1,59.09-7.81c40.91.22,80.46,12,116.47,33V305s-33-154-333-157S683.5,0,683.5,0H.5V715.35C70.06,682.21,149.28,682.51,221,728.17Z"/><path class="cls-2" d="M0,341c82,0,148.5,63.13,148.5,141S82,623,0,623"/><path class="cls-3" d="M1363.58,500.23a118.25,118.25,0,0,1-102-59.85l-41.51-73.12A118.24,118.24,0,0,1,1221,249l42.56-72.51a118.26,118.26,0,0,1,102.81-58.37"/></g></g></svg>